<?xml version="1.0" encoding="utf-8"?>
<!-- Generator: Adobe Illustrator 16.0.3, SVG Export Plug-In . SVG Version: 6.00 Build 0)  -->
<!DOCTYPE svg PUBLIC "-//W3C//DTD SVG 1.1//EN" "http://www.w3.org/Graphics/SVG/1.1/DTD/svg11.dtd">
<svg version="1.1" id="Layer_1" xmlns="http://www.w3.org/2000/svg" xmlns:xlink="http://www.w3.org/1999/xlink" x="0px" y="0px"
	 width="102.559px" height="123.419px" viewBox="0 0 102.559 123.419" enable-background="new 0 0 102.559 123.419"
	 xml:space="preserve">
<line fill="none" x1="-175.533" y1="31.119" x2="-108.959" y2="31.119"/>
<line fill="none" x1="-164.992" y1="-3.277" x2="-158.705" y2="5.784"/>
<g>
	<g>
		<path fill="#85C808" d="M84.687,94.515c0,2.209-1.791,4-4,4H21.872c-2.209,0-4.002-1.791-4.002-4V42.058c0-2.209,1.793-4,4.002-4
			h58.814c2.209,0,4,1.791,4,4V94.515z"/>
		<rect x="17.808" y="38.058" fill="#85C808" width="66.943" height="27.555"/>
	</g>
	<g>
		<path fill="#85C808" d="M102.559,74.893c0,3.932-3.188,7.119-7.12,7.119l0,0c-3.932,0-7.119-3.188-7.119-7.119V42.899
			c0-3.932,3.188-7.12,7.119-7.12l0,0c3.933,0,7.12,3.188,7.12,7.12V74.893z"/>
		<path fill="#85C808" d="M14.239,74.893c0,3.932-3.188,7.119-7.12,7.119l0,0C3.188,82.012,0,78.824,0,74.893V42.899
			c0-3.932,3.188-7.12,7.119-7.12l0,0c3.933,0,7.12,3.188,7.12,7.12V74.893z"/>
	</g>
	<path fill="#85C808" d="M18.085,34.116c0,0,0.739-28.332,33.194-28.231c32.149,0.099,33.194,28.231,33.194,28.231H18.085z"/>
	<g>
		<circle fill="#FFFFFF" cx="36.71" cy="19.654" r="3.996"/>
		<circle fill="#FFFFFF" cx="65.849" cy="19.654" r="3.996"/>
	</g>
	<g>
		<path fill="#85C808" d="M35.61,9.693c0.117,0.166,0.479,0.113,0.811-0.122l0,0c0.326-0.231,0.498-0.557,0.381-0.723l-6.201-8.752
			c-0.119-0.167-0.482-0.112-0.809,0.119l0,0c-0.33,0.234-0.501,0.558-0.383,0.725L35.61,9.693z"/>
		<path fill="#85C808" d="M66.946,9.693c-0.117,0.166-0.479,0.113-0.811-0.122l0,0c-0.326-0.231-0.498-0.557-0.381-0.723
			l6.201-8.752c0.119-0.167,0.482-0.112,0.81,0.119l0,0c0.33,0.234,0.501,0.558,0.382,0.725L66.946,9.693z"/>
	</g>
	<g>
		<path fill="#85C808" d="M72.138,116.3c0,3.932-3.188,7.119-7.12,7.119l0,0c-3.932,0-7.119-3.188-7.119-7.119V84.306
			c0-3.932,3.188-7.119,7.119-7.119l0,0c3.933,0,7.12,3.188,7.12,7.119V116.3z"/>
		<path fill="#85C808" d="M44.659,116.3c0,3.932-3.188,7.119-7.119,7.119l0,0c-3.932,0-7.119-3.188-7.119-7.119V84.306
			c0-3.932,3.188-7.119,7.119-7.119l0,0c3.932,0,7.119,3.188,7.119,7.119V116.3z"/>
	</g>
</g>
</svg>
