<?xml version="1.0" encoding="utf-8"?>
<!-- Generator: Adobe Illustrator 16.0.3, SVG Export Plug-In . SVG Version: 6.00 Build 0)  -->
<!DOCTYPE svg PUBLIC "-//W3C//DTD SVG 1.1//EN" "http://www.w3.org/Graphics/SVG/1.1/DTD/svg11.dtd">
<svg version="1.1" id="Layer_1" xmlns="http://www.w3.org/2000/svg" xmlns:xlink="http://www.w3.org/1999/xlink" x="0px" y="0px"
	 width="50px" height="50px" viewBox="0 0 50 50" enable-background="new 0 0 50 50" xml:space="preserve">
<g id="Layer_1_1_">
</g>
<g id="Layer_2">
</g>
<path fill="#6A1577" d="M23.857,3.423c0.707-0.397,1.578-0.397,2.284,0c3.495,1.961,14.012,7.866,17.507,9.827
	c0.708,0.396,1.143,1.129,1.143,1.923c0,3.923,0,15.73,0,19.653c0,0.793-0.435,1.527-1.143,1.924
	c-3.494,1.961-14.011,7.865-17.507,9.827c-0.707,0.397-1.578,0.397-2.284,0C20.362,44.615,9.846,38.711,6.35,36.75
	c-0.707-0.396-1.142-1.129-1.142-1.923c0-3.923,0-15.73,0-19.653c0-0.793,0.435-1.527,1.143-1.924
	C9.845,11.289,20.364,5.384,23.857,3.423z"/>
<path fill="#9A4993" d="M5.525,35.838c-0.277-0.371-0.316-0.723-0.316-1.197c0-3.9,0-15.64,0-19.541c0-0.79,0.434-1.519,1.14-1.913
	c3.482-1.95,13.963-7.82,17.446-9.771c0.705-0.395,1.66-0.386,2.365,0.008c3.482,1.95,13.929,7.77,17.411,9.72
	c0.281,0.159,0.495,0.349,0.688,0.6L5.525,35.838z"/>
<path id="C" fill="#FFFFFF" d="M25,10.263c-8.049,0-14.583,6.535-14.583,14.583S16.951,39.431,25,39.431s14.583-6.535,14.583-14.584
	S33.049,10.263,25,10.263z M25,32.139c-4.023,0-7.292-3.268-7.292-7.291c0-4.024,3.266-7.292,7.292-7.292
	c4.023,0,7.291,3.268,7.291,7.292C32.291,28.871,29.023,32.139,25,32.139z"/>
<path fill="#813084" d="M44.256,13.755c0.537,0.503,0.526,1.261,0.526,1.858c0,3.953-0.033,15.197,0.009,19.15
	c0.005,0.412-0.132,0.847-0.336,1.174L24.576,25L44.256,13.755z"/>
<rect x="38.541" y="20.833" fill="#FFFFFF" width="1.043" height="8.333"/>
<rect x="33.334" y="22.917" fill="#FFFFFF" width="8.332" height="1.042"/>
<g>
	<rect x="35.155" y="20.833" fill="#FFFFFF" width="1.564" height="8.333"/>
	<rect x="38.28" y="20.833" fill="#FFFFFF" width="1.564" height="8.333"/>
	<rect x="33.334" y="25.78" fill="#FFFFFF" width="8.332" height="1.564"/>
	<rect x="33.334" y="22.656" fill="#FFFFFF" width="8.332" height="1.563"/>
</g>
</svg>
