<?xml version="1.0" encoding="utf-8"?>
<!-- Generator: Adobe Illustrator 16.0.3, SVG Export Plug-In . SVG Version: 6.00 Build 0)  -->
<!DOCTYPE svg PUBLIC "-//W3C//DTD SVG 1.1//EN" "http://www.w3.org/Graphics/SVG/1.1/DTD/svg11.dtd">
<svg version="1.1" id="Camada_1" xmlns="http://www.w3.org/2000/svg" xmlns:xlink="http://www.w3.org/1999/xlink" x="0px" y="0px"
	 width="612px" height="612px" viewBox="90 0 612 612" enable-background="new 90 0 612 612" xml:space="preserve">
<g>
	
		<linearGradient id="SVGID_1_" gradientUnits="userSpaceOnUse" x1="697.959" y1="431.5811" x2="697.959" y2="-44.6111" gradientTransform="matrix(1 0 0 -1 -301.96 389.3398)">
		<stop  offset="0.0212" style="stop-color:#FF0C15"/>
		<stop  offset="1" style="stop-color:#9A0C0F"/>
	</linearGradient>
	<circle fill="url(#SVGID_1_)" cx="396.001" cy="306" r="296.494"/>
	<path fill="#FF6443" d="M640.502,311.143H161.438c-16.297-0.879-21.73,8.191-23.13,17.359c0.472,6.051,1.156,12.043,2.032,17.973
		c18.695,126.701,127.87,223.947,259.766,223.947c131.898,0,241.073-97.244,259.768-223.947c1.054-7.117,1.809-14.334,2.278-21.627
		C660.262,317.084,654.617,310.383,640.502,311.143z"/>
	<g>
		<g>
			<polyline fill="#FAE7E3" points="448.522,213.658 559.213,121.038 476.194,91.672 396.001,201.232 			"/>
			<polyline fill="#FAE7E3" points="389.224,200.668 451.911,91.672 371.717,91.672 338.96,206.314 			"/>
			<polyline fill="#FAE7E3" points="333.313,208.01 345.172,109.179 281.355,135.723 290.393,237.378 			"/>
			<polyline fill="#FAE7E3" points="284.743,242.46 264.412,152.665 220.362,196.716 261.59,278.039 			"/>
			<polyline fill="#FAE7E3" points="255.941,285.944 215.845,229.257 197.772,273.521 248.6,316.943 			"/>
			<polyline fill="#FAE7E3" points="248.6,322.025 197.772,289.333 194.384,335.645 251.988,355.41 			"/>
			<polyline fill="#FAE7E3" points="252.553,366.27 197.772,349.199 210.196,386.471 259.33,386.471 			"/>
			<polyline fill="#FAE7E3" points="262.718,392.684 220.362,398.896 239.846,427.697 274.578,411.887 			"/>
		</g>
		<path fill="#EEEEEE" stroke="#EE4B2E" stroke-width="6.777" stroke-miterlimit="10" d="M481.208,244.339
			c-24.118-24.119-59.133-42.425-95.939-42.425c-73.606,0-133.28,59.673-133.28,133.279c0,39.484,17.17,74.957,44.447,99.361
			l104.649,2.736l-44.051-88.094L481.208,244.339z"/>
		<path fill="#F04E31" d="M311.568,401.154c-88.382-123.115,44.663-173.061,52.488-179.026c9.558-7.288-160.735,37.8-68.321,188.063
			L311.568,401.154z"/>
		<polygon fill="#EEEEEE" stroke="#EE4B2E" stroke-width="6.777" stroke-miterlimit="10" points="495.962,233.989 343.478,339.182 
			347.997,360.492 511.773,327.736 		"/>
		<path fill="#DD0C13" d="M390.14,418.637c-83.231-14.145-90.712,9.061-90.712,9.061l-24.85,57.041c0,0,23.719-19.201,116.339,0
			l16.089-29.402L390.14,418.637z"/>
		<path fill="#FFFFFF" stroke="#EE4B2E" stroke-width="6.777" stroke-miterlimit="10" d="M562.142,483.723"/>
		<path fill="#FF6E4F" d="M356.224,424.695c-0.424-4.234-23.329-6.76-35.52-2.609c-15.499,5.277-25.812,24.188-22.132,25.684
			c0,0,8.454-17.305,23.826-20.885C341.936,422.334,356.647,428.934,356.224,424.695z"/>
		<path fill="#EEEEEE" stroke="#EE4B2E" stroke-width="6.777" stroke-miterlimit="10" d="M385.835,361.188
			c8.471,11.988,32.756,31.496,32.756,31.496c48.003,32.754,57.604,86.973,57.604,86.973c-2.261,22.59-41.79,37.273-41.79,37.273
			l-70.031-152.354L385.835,361.188z"/>
	</g>
	<path opacity="0.2" fill="#EAE0DF" enable-background="new    " d="M665.755,236.378c0.525,8.347,0.723,16.777,0.537,25.289
		c-3.542,163.012-138.558,292.287-301.567,288.746c-42.905-0.932-83.473-10.982-119.899-28.248
		c42.589,29.822,94.157,47.801,150.038,49.016c150.308,3.264,274.803-115.938,278.068-266.243
		C673.444,281.322,670.934,258.348,665.755,236.378z"/>
	<path opacity="0.2" fill="#EAE0DF" enable-background="new    " d="M107.625,261.37c21.484-141.896,143.978-250.649,291.87-250.649
		c78.119,0,149.151,30.344,201.955,79.888c0,0-106.076,126.612-224.156,167.446C259.213,298.887,107.625,261.37,107.625,261.37z"/>
	<path opacity="0.2" fill="#EAE0DF" enable-background="new    " d="M133.781,363.063c-0.93-8.311-1.534-16.723-1.763-25.232
		c-4.355-162.994,137.17-281.793,300.16-286.152c42.899-1.147,83.906,15.398,121.125,30.882
		c-43.981-27.724-96.362-51.657-152.234-50.164c-150.29,4.019-281.795,112.247-277.777,262.535
		C123.922,318.543,127.544,341.369,133.781,363.063z"/>
</g>
</svg>
