<?xml version="1.0" encoding="utf-8"?>
<!-- Generator: Adobe Illustrator 16.0.3, SVG Export Plug-In . SVG Version: 6.00 Build 0)  -->
<!DOCTYPE svg PUBLIC "-//W3C//DTD SVG 1.1//EN" "http://www.w3.org/Graphics/SVG/1.1/DTD/svg11.dtd">
<svg version="1.1" id="Layer_1" xmlns="http://www.w3.org/2000/svg" xmlns:xlink="http://www.w3.org/1999/xlink" x="0px" y="0px"
	 width="512px" height="512px" viewBox="0 0 512 512" enable-background="new 0 0 512 512" xml:space="preserve">
<g>
</g>
<path fill="#0B4977" d="M513.987,463.987c0,27.614-22.387,50-50,50H48.013c-27.614,0-50-22.386-50-50V48.013
	c0-27.614,22.386-50,50-50h415.975c27.613,0,50,22.386,50,50V463.987z"/>
<g>
	<path fill="#FFFFFF" d="M403.529,212.479v87.33H296.42c-14.551,0-24.859,1.533-30.922,4.596c-6.064,3.066-9.095,8.236-9.095,15.514
		c0,8.236,3.093,13.645,9.296,16.23c6.195,2.584,18.859,3.879,37.994,3.879h110.348v112.035H285.102
		c-60.629,0-106.979-10.291-139.042-30.881c-32.068-20.584-48.1-50.318-48.1-89.199v-153.69c0-37.534,15.158-66.646,45.473-87.33
		c30.313-20.685,72.956-31.026,127.923-31.026h142.686v112.611H309.354c-28.293,0-42.441,6.514-42.441,19.534
		c0,7.663,3.364,12.977,10.104,15.943c6.731,2.972,18.726,4.454,35.974,4.454H403.529z"/>
</g>
</svg>
