<?xml version="1.0" standalone="no"?>
<!DOCTYPE svg PUBLIC "-//W3C//DTD SVG 20010904//EN"
 "http://www.w3.org/TR/2001/REC-SVG-20010904/DTD/svg10.dtd">
<svg version="1.0" xmlns="http://www.w3.org/2000/svg"
 width="512.000000pt" height="512.000000pt" viewBox="0 0 512.000000 512.000000"
 preserveAspectRatio="xMidYMid meet">
<metadata>
Created by potrace 1.11, written by Peter Selinger 2001-2013
</metadata>
<g transform="translate(0.000000,512.000000) scale(0.100000,-0.100000)"
fill="#000000" stroke="none">
<path d="M262 5090 c-88 -42 -183 -135 -227 -223 l-35 -70 0 -2236 0 -2236 30
-63 c42 -88 135 -183 223 -227 l70 -35 2237 0 2237 0 70 35 c88 44 181 139
223 227 l30 63 0 2236 0 2236 -35 70 c-44 88 -139 181 -227 223 l-63 30 -2235
0 -2235 0 -63 -30z m3878 -1135 l0 -565 -587 0 c-701 -1 -747 -6 -835 -88 -79
-73 -53 -209 48 -257 83 -39 166 -44 732 -45 l542 0 0 -440 0 -440 -597 0
c-649 -1 -714 -5 -797 -54 -54 -32 -76 -75 -76 -153 0 -103 50 -153 169 -172
116 -19 156 -20 784 -20 l617 -1 0 -560 0 -560 -759 0 c-448 0 -813 4 -888 11
-561 46 -971 197 -1225 450 -130 130 -212 276 -261 466 l-22 88 0 955 c0 949
0 956 22 1036 50 189 119 316 240 444 192 203 471 343 827 415 240 49 329 53
1229 54 l837 1 0 -565z"/>
</g>
</svg>
